{
  "accessors": [
    {
      "bufferView": 2,
      "componentType": 5126,
      "count": 36856,
      "max": [
        1.8986151218414307,
        5.268258094787598,
        1.6216495037078857
      ],
      "min": [
        -2.1816389560699463,
        -0.004198023118078709,
        -1.8219356536865234
      ],
      "type": "VEC3"
    },
    {
      "bufferView": 2,
      "byteOffset": 442272,
      "componentType": 5126,
      "count": 36856,
      "max": [
        0.9999616146087646,
        0.9999812245368958,
        0.9999672770500183
      ],
      "min": [
        -0.9998902082443237,
        -0.999992847442627,
        -0.9999844431877136
      ],
      "type": "VEC3"
    },
    {
      "bufferView": 1,
      "componentType": 5126,
      "count": 36856,
      "max": [
        0.9950319528579712,
        0.9966860413551331
      ],
      "min": [
        0.007281364407390356,
        0.007905185222625732
      ],
      "type": "VEC2"
    },
    {
      "bufferView": 1,
      "byteOffset": 294848,
      "componentType": 5126,
      "count": 36856,
      "max": [
        0.9950319528579712,
        0.9966860413551331
      ],
      "min": [
        0.007281364407390356,
        0.007905185222625732
      ],
      "type": "VEC2"
    },
    {
      "bufferView": 1,
      "byteOffset": 589696,
      "componentType": 5126,
      "count": 36856,
      "max": [
        0.9950319528579712,
        0.9966860413551331
      ],
      "min": [
        0.007281364407390356,
        0.007905185222625732
      ],
      "type": "VEC2"
    },
    {
      "bufferView": 0,
      "componentType": 5125,
      "count": 198072,
      "type": "SCALAR"
    }
  ],
  "asset": {
    "extras": {
      "author": "Justin Rajan (https://sketchfab.com/justin.rajan.6619)",
      "license": "CC-BY-4.0 (http://creativecommons.org/licenses/by/4.0/)",
      "source": "https://sketchfab.com/3d-models/small-monster-f3aa3366cf1345f7b310800460e2bce4",
      "title": "Small Monster"
    },
    "generator": "Sketchfab-12.68.0",
    "version": "2.0"
  },
  "bufferViews": [
    {
      "buffer": 0,
      "byteLength": 792288,
      "name": "floatBufferViews",
      "target": 34963
    },
    {
      "buffer": 0,
      "byteLength": 884544,
      "byteOffset": 792288,
      "byteStride": 8,
      "name": "floatBufferViews",
      "target": 34962
    },
    {
      "buffer": 0,
      "byteLength": 884544,
      "byteOffset": 1676832,
      "byteStride": 12,
      "name": "floatBufferViews",
      "target": 34962
    }
  ],
  "buffers": [
    {
      "byteLength": 2561376,
      "uri": "scene.bin"
    }
  ],
  "extensionsRequired": [
    "KHR_materials_pbrSpecularGlossiness"
  ],
  "extensionsUsed": [
    "KHR_materials_pbrSpecularGlossiness"
  ],
  "images": [
    {
      "uri": "textures/material_diffuse.png"
    },
    {
      "uri": "textures/material_specularGlossiness.png"
    }
  ],
  "materials": [
    {
      "doubleSided": true,
      "extensions": {
        "KHR_materials_pbrSpecularGlossiness": {
          "diffuseFactor": [
            1.0,
            1.0,
            1.0,
            1.0
          ],
          "diffuseTexture": {
            "index": 0
          },
          "glossinessFactor": 1.0,
          "specularFactor": [
            1.0,
            1.0,
            1.0
          ],
          "specularGlossinessTexture": {
            "index": 1
          }
        }
      },
      "name": "material"
    }
  ],
  "meshes": [
    {
      "name": "Object_0",
      "primitives": [
        {
          "attributes": {
            "NORMAL": 1,
            "POSITION": 0,
            "TEXCOORD_0": 2,
            "TEXCOORD_1": 3,
            "TEXCOORD_2": 4
          },
          "indices": 5,
          "material": 0,
          "mode": 4
        }
      ]
    }
  ],
  "nodes": [
    {
      "children": [
        1
      ],
      "matrix": [
        1.0,
        0.0,
        0.0,
        0.0,
        0.0,
        2.220446049250313e-16,
        -1.0,
        0.0,
        0.0,
        1.0,
        2.220446049250313e-16,
        0.0,
        0.0,
        0.0,
        0.0,
        1.0
      ],
      "name": "Sketchfab_model"
    },
    {
      "children": [
        2
      ],
      "name": "root"
    },
    {
      "children": [
        3
      ],
      "matrix": [
        1.0,
        0.0,
        0.0,
        0.0,
        0.0,
        2.220446049250313e-16,
        1.0,
        0.0,
        0.0,
        -1.0,
        2.220446049250313e-16,
        0.0,
        0.0,
        0.0,
        0.0,
        1.0
      ],
      "name": "GLTF_SceneRootNode"
    },
    {
      "children": [
        4
      ],
      "name": "root_1"
    },
    {
      "children": [
        5
      ],
      "matrix": [
        0.06609328347842126,
        -6.56603281120025e-11,
        -0.028541015852071736,
        0.0,
        6.566033511376905e-11,
        0.07199244946241379,
        -1.3571370876704592e-11,
        0.0,
        0.028541015852071736,
        -1.3571370471283856e-11,
        0.06609328347842126,
        0.0,
        0.00754660926759243,
        -0.18069778382778168,
        0.30182453989982605,
        1.0
      ],
      "name": "node_id31_0"
    },
    {
      "mesh": 0,
      "name": "Object_5"
    }
  ],
  "samplers": [
    {
      "magFilter": 9729,
      "minFilter": 9987,
      "wrapS": 10497,
      "wrapT": 10497
    }
  ],
  "scene": 0,
  "scenes": [
    {
      "name": "Sketchfab_Scene",
      "nodes": [
        0
      ]
    }
  ],
  "textures": [
    {
      "sampler": 0,
      "source": 0
    },
    {
      "sampler": 0,
      "source": 1
    }
  ]
}
